  0
SECTION
  2
HEADER
  9
$INSBASE
 10
0.0000
 20
0.0000
  9
$EXTMIN
 10
-318.00107140124163
 20
-318.00107140124248
  9
$EXTMAX
 10
318.00107140124163
 20
318.00107140124248
  9
$LIMMIN
 10
-318.00107140124163
 20
-318.00107140124248
  9
$LIMMAX
 10
318.00107140124163
 20
318.00107140124248
  9
$TEXTSTYLE
  7
STANDARD
  9
$CLAYER
  8
default
  0
ENDSEC
  0
SECTION
  2
TABLES
  0
TABLE
  2
LTYPE
 70
4948253
  0
LTYPE
  2
CONTINUOUS
 70
    64
  3
Solid line
 72
    65
 73
     0
 40
0.0
  0
ENDTAB
  0
TABLE
  2
LAYER
 70
     5
  0
LAYER
  2
default
 70
    64
 62
     7
  6
CONTINUOUS
  0
LAYER
  2
layer10
 70
    64
 62
     7
  6
CONTINUOUS
  0
ENDTAB
  0
TABLE
  2
STYLE
 70
     1
  0
STYLE
  2
STANDARD
 70
     0
 40
0.0
 41
1.0
 50
0.0
 71
     0
 42
0.2
  3
txt
  4

  0
ENDTAB
  0
TABLE
  2
VIEW
 70
     0
  0
ENDTAB
  0
ENDSEC
  0
SECTION
  2
BLOCKS
  0
ENDSEC
  0
SECTION
  2
ENTITIES
  0
LINE
  8
default
 10
84.224533844469789
 20
-2.4033453689152111
 30
0.0
 11
86.156385497047935
 21
-2.9209834591202508
 31
0.0
  0
LINE
  8
default
 10
74.14225861567067
 20
-40.030908778686637
 30
0.0
 11
76.074110268248816
 21
-40.548546868891677
 31
0.0
  0
LINE
  8
default
 10
86.156385497047935
 20
-2.9209834591202508
 30
0.0
 11
87.858224911349609
 21
-8.3994653574579949
 31
0.0
  0
LINE
  8
default
 10
76.074110268248816
 20
-40.548546868891677
 30
0.0
 11
80.287187383364582
 21
-36.654962077908834
 31
0.0
  0
LINE
  8
default
 10
87.858224911349609
 20
-8.3994653574579949
 30
0.0
 11
108.61714901527225
 21
-13.961802306843033
 31
0.0
  0
LINE
  8
default
 10
108.61714901527225
 20
-13.961802306843033
 30
0.0
 11
129.30008560244693
 21
-19.503778462480614
 31
0.0
  0
LINE
  8
default
 10
80.287187383364582
 20
-36.654962077908834
 30
0.0
 11
101.04611148728722
 21
-42.217299027293876
 31
0.0
  0
LINE
  8
default
 10
101.04611148728722
 20
-42.217299027293876
 30
0.0
 11
121.7290480744619
 21
-47.759275182931461
 31
0.0
  0
LINE
  8
default
 10
74.14225861567067
 20
40.03090877868663
 30
0.0
 11
76.074110268248816
 21
40.548546868891663
 31
0.0
  0
LINE
  8
default
 10
84.224533844469804
 20
2.403345368915204
 30
0.0
 11
86.156385497047935
 21
2.9209834591202473
 31
0.0
  0
LINE
  8
default
 10
76.074110268248816
 20
40.548546868891663
 30
0.0
 11
80.287187383364596
 21
36.654962077908834
 31
0.0
  0
LINE
  8
default
 10
86.156385497047935
 20
2.9209834591202473
 30
0.0
 11
87.858224911349623
 21
8.3994653574579914
 31
0.0
  0
LINE
  8
default
 10
80.287187383364596
 20
36.654962077908834
 30
0.0
 11
101.04611148728722
 21
42.217299027293869
 31
0.0
  0
LINE
  8
default
 10
101.04611148728722
 20
42.217299027293869
 30
0.0
 11
121.7290480744619
 21
47.759275182931447
 31
0.0
  0
LINE
  8
default
 10
87.858224911349623
 20
8.3994653574579914
 30
0.0
 11
108.61714901527228
 21
13.961802306843037
 31
0.0
  0
LINE
  8
default
 10
108.61714901527228
 20
13.961802306843037
 30
0.0
 11
129.30008560244693
 21
19.503778462480607
 31
0.0
  0
LINE
  8
default
 10
44.193625065783152
 20
71.738913246755459
 30
0.0
 11
45.607838628156252
 21
73.153126809128551
 31
0.0
  0
LINE
  8
default
 10
71.738913246755459
 20
44.193625065783145
 30
0.0
 11
73.153126809128565
 21
45.607838628156244
 31
0.0
  0
LINE
  8
default
 10
45.607838628156252
 20
73.153126809128551
 30
0.0
 11
51.203262833440782
 21
71.887722025906569
 31
0.0
  0
LINE
  8
default
 10
73.153126809128565
 20
45.607838628156244
 30
0.0
 11
71.887722025906584
 21
51.203262833440775
 31
0.0
  0
LINE
  8
default
 10
51.203262833440782
 20
71.887722025906569
 30
0.0
 11
66.399849987978399
 21
87.08430918044418
 31
0.0
  0
LINE
  8
default
 10
66.399849987978399
 20
87.08430918044418
 30
0.0
 11
81.540810419515495
 21
102.22526961198128
 31
0.0
  0
LINE
  8
default
 10
71.887722025906584
 20
51.203262833440775
 30
0.0
 11
87.084309180444194
 21
66.399849987978371
 31
0.0
  0
LINE
  8
default
 10
87.084309180444194
 20
66.399849987978371
 30
0.0
 11
102.2252696119813
 21
81.540810419515481
 31
0.0
  0
LINE
  8
default
 10
2.4033453689152147
 20
84.224533844469789
 30
0.0
 11
2.9209834591202544
 21
86.156385497047935
 31
0.0
  0
LINE
  8
default
 10
40.030908778686637
 20
74.14225861567067
 30
0.0
 11
40.548546868891677
 21
76.074110268248816
 31
0.0
  0
LINE
  8
default
 10
2.9209834591202544
 20
86.156385497047935
 30
0.0
 11
8.3994653574580003
 21
87.858224911349609
 31
0.0
  0
LINE
  8
default
 10
40.548546868891677
 20
76.074110268248816
 30
0.0
 11
36.654962077908841
 21
80.287187383364568
 31
0.0
  0
LINE
  8
default
 10
8.3994653574580003
 20
87.858224911349609
 30
0.0
 11
13.96180230684304
 21
108.61714901527225
 31
0.0
  0
LINE
  8
default
 10
13.96180230684304
 20
108.61714901527225
 30
0.0
 11
19.503778462480621
 21
129.30008560244693
 31
0.0
  0
LINE
  8
default
 10
36.654962077908841
 20
80.287187383364568
 30
0.0
 11
42.217299027293883
 21
101.04611148728721
 31
0.0
  0
LINE
  8
default
 10
42.217299027293883
 20
101.04611148728721
 30
0.0
 11
47.759275182931461
 21
121.72904807446189
 31
0.0
  0
LINE
  8
default
 10
-40.030908778686616
 20
74.142258615670684
 30
0.0
 11
-40.548546868891648
 21
76.074110268248816
 31
0.0
  0
LINE
  8
default
 10
-2.4033453689151898
 20
84.224533844469789
 30
0.0
 11
-2.9209834591202331
 21
86.156385497047935
 31
0.0
  0
LINE
  8
default
 10
-40.548546868891648
 20
76.074110268248816
 30
0.0
 11
-36.65496207790882
 21
80.287187383364582
 31
0.0
  0
LINE
  8
default
 10
-2.9209834591202331
 20
86.156385497047935
 30
0.0
 11
-8.3994653574579772
 21
87.858224911349609
 31
0.0
  0
LINE
  8
default
 10
-36.65496207790882
 20
80.287187383364582
 30
0.0
 11
-42.217299027293855
 21
101.04611148728722
 31
0.0
  0
LINE
  8
default
 10
-42.217299027293855
 20
101.04611148728722
 30
0.0
 11
-47.759275182931432
 21
121.7290480744619
 31
0.0
  0
LINE
  8
default
 10
-8.3994653574579772
 20
87.858224911349609
 30
0.0
 11
-13.961802306843023
 21
108.61714901527226
 31
0.0
  0
LINE
  8
default
 10
-13.961802306843023
 20
108.61714901527226
 30
0.0
 11
-19.503778462480593
 21
129.30008560244693
 31
0.0
  0
LINE
  8
default
 10
-71.738913246755473
 20
44.193625065783145
 30
0.0
 11
-73.15312680912858
 21
45.607838628156244
 31
0.0
  0
LINE
  8
default
 10
-44.193625065783159
 20
71.738913246755459
 30
0.0
 11
-45.607838628156259
 21
73.153126809128551
 31
0.0
  0
LINE
  8
default
 10
-73.15312680912858
 20
45.607838628156244
 30
0.0
 11
-71.887722025906584
 21
51.203262833440768
 31
0.0
  0
LINE
  8
default
 10
-45.607838628156259
 20
73.153126809128551
 30
0.0
 11
-51.203262833440796
 21
71.887722025906569
 31
0.0
  0
LINE
  8
default
 10
-71.887722025906584
 20
51.203262833440768
 30
0.0
 11
-87.084309180444194
 21
66.399849987978371
 31
0.0
  0
LINE
  8
default
 10
-87.084309180444194
 20
66.399849987978371
 30
0.0
 11
-102.22526961198129
 21
81.540810419515466
 31
0.0
  0
LINE
  8
default
 10
-51.203262833440796
 20
71.887722025906569
 30
0.0
 11
-66.399849987978399
 21
87.084309180444166
 31
0.0
  0
LINE
  8
default
 10
-66.399849987978399
 20
87.084309180444166
 30
0.0
 11
-81.540810419515509
 21
102.22526961198128
 31
0.0
  0
LINE
  8
default
 10
-84.224533844469789
 20
2.4033453689152218
 30
0.0
 11
-86.156385497047935
 21
2.9209834591202615
 31
0.0
  0
LINE
  8
default
 10
-74.14225861567067
 20
40.030908778686651
 30
0.0
 11
-76.074110268248816
 21
40.548546868891691
 31
0.0
  0
LINE
  8
default
 10
-86.156385497047935
 20
2.9209834591202615
 30
0.0
 11
-87.858224911349609
 21
8.3994653574580056
 31
0.0
  0
LINE
  8
default
 10
-76.074110268248816
 20
40.548546868891691
 30
0.0
 11
-80.287187383364568
 21
36.654962077908849
 31
0.0
  0
LINE
  8
default
 10
-87.858224911349609
 20
8.3994653574580056
 30
0.0
 11
-108.61714901527225
 21
13.961802306843046
 31
0.0
  0
LINE
  8
default
 10
-108.61714901527225
 20
13.961802306843046
 30
0.0
 11
-129.30008560244693
 21
19.503778462480632
 31
0.0
  0
LINE
  8
default
 10
-80.287187383364568
 20
36.654962077908849
 30
0.0
 11
-101.04611148728721
 21
42.21729902729389
 31
0.0
  0
LINE
  8
default
 10
-101.04611148728721
 20
42.21729902729389
 30
0.0
 11
-121.72904807446189
 21
47.759275182931475
 31
0.0
  0
LINE
  8
default
 10
-74.14225861567067
 20
-40.030908778686651
 30
0.0
 11
-76.074110268248802
 21
-40.548546868891684
 31
0.0
  0
LINE
  8
default
 10
-84.224533844469789
 20
-2.4033453689152218
 30
0.0
 11
-86.156385497047935
 21
-2.920983459120265
 31
0.0
  0
LINE
  8
default
 10
-76.074110268248802
 20
-40.548546868891684
 30
0.0
 11
-80.287187383364582
 21
-36.654962077908849
 31
0.0
  0
LINE
  8
default
 10
-86.156385497047935
 20
-2.920983459120265
 30
0.0
 11
-87.858224911349609
 21
-8.3994653574580127
 31
0.0
  0
LINE
  8
default
 10
-80.287187383364582
 20
-36.654962077908849
 30
0.0
 11
-101.04611148728722
 21
-42.217299027293905
 31
0.0
  0
LINE
  8
default
 10
-101.04611148728722
 20
-42.217299027293905
 30
0.0
 11
-121.7290480744619
 21
-47.759275182931475
 31
0.0
  0
LINE
  8
default
 10
-87.858224911349609
 20
-8.3994653574580127
 30
0.0
 11
-108.61714901527226
 21
-13.961802306843062
 31
0.0
  0
LINE
  8
default
 10
-108.61714901527226
 20
-13.961802306843062
 30
0.0
 11
-129.30008560244693
 21
-19.503778462480639
 31
0.0
  0
LINE
  8
default
 10
-44.193625065783195
 20
-71.738913246755445
 30
0.0
 11
-45.60783862815628
 21
-73.153126809128537
 31
0.0
  0
LINE
  8
default
 10
-71.738913246755487
 20
-44.193625065783117
 30
0.0
 11
-73.15312680912858
 21
-45.607838628156216
 31
0.0
  0
LINE
  8
default
 10
-45.60783862815628
 20
-73.153126809128537
 30
0.0
 11
-51.203262833440803
 21
-71.887722025906555
 31
0.0
  0
LINE
  8
default
 10
-73.15312680912858
 20
-45.607838628156216
 30
0.0
 11
-71.887722025906598
 21
-51.203262833440746
 31
0.0
  0
LINE
  8
default
 10
-51.203262833440803
 20
-71.887722025906555
 30
0.0
 11
-66.399849987978428
 21
-87.084309180444151
 31
0.0
  0
LINE
  8
default
 10
-66.399849987978428
 20
-87.084309180444151
 30
0.0
 11
-81.540810419515537
 21
-102.22526961198125
 31
0.0
  0
LINE
  8
default
 10
-71.887722025906598
 20
-51.203262833440746
 30
0.0
 11
-87.084309180444222
 21
-66.399849987978342
 31
0.0
  0
LINE
  8
default
 10
-87.084309180444222
 20
-66.399849987978342
 30
0.0
 11
-102.22526961198132
 21
-81.540810419515424
 31
0.0
  0
LINE
  8
default
 10
-2.4033453689152253
 20
-84.224533844469789
 30
0.0
 11
-2.920983459120265
 21
-86.156385497047935
 31
0.0
  0
LINE
  8
default
 10
-40.030908778686651
 20
-74.14225861567067
 30
0.0
 11
-40.548546868891691
 21
-76.074110268248816
 31
0.0
  0
LINE
  8
default
 10
-2.920983459120265
 20
-86.156385497047935
 30
0.0
 11
-8.3994653574580109
 21
-87.858224911349609
 31
0.0
  0
LINE
  8
default
 10
-40.548546868891691
 20
-76.074110268248816
 30
0.0
 11
-36.654962077908849
 21
-80.287187383364568
 31
0.0
  0
LINE
  8
default
 10
-8.3994653574580109
 20
-87.858224911349609
 30
0.0
 11
-13.961802306843053
 21
-108.61714901527225
 31
0.0
  0
LINE
  8
default
 10
-13.961802306843053
 20
-108.61714901527225
 30
0.0
 11
-19.503778462480639
 21
-129.30008560244693
 31
0.0
  0
LINE
  8
default
 10
-36.654962077908849
 20
-80.287187383364568
 30
0.0
 11
-42.21729902729389
 21
-101.04611148728721
 31
0.0
  0
LINE
  8
default
 10
-42.21729902729389
 20
-101.04611148728721
 30
0.0
 11
-47.759275182931475
 21
-121.72904807446189
 31
0.0
  0
LINE
  8
default
 10
40.030908778686651
 20
-74.14225861567067
 30
0.0
 11
40.548546868891684
 21
-76.074110268248802
 31
0.0
  0
LINE
  8
default
 10
2.4033453689152218
 20
-84.224533844469789
 30
0.0
 11
2.920983459120265
 21
-86.156385497047935
 31
0.0
  0
LINE
  8
default
 10
40.548546868891684
 20
-76.074110268248802
 30
0.0
 11
36.654962077908849
 21
-80.287187383364582
 31
0.0
  0
LINE
  8
default
 10
2.920983459120265
 20
-86.156385497047935
 30
0.0
 11
8.3994653574580127
 21
-87.858224911349609
 31
0.0
  0
LINE
  8
default
 10
36.654962077908849
 20
-80.287187383364582
 30
0.0
 11
42.217299027293905
 21
-101.04611148728722
 31
0.0
  0
LINE
  8
default
 10
42.217299027293905
 20
-101.04611148728722
 30
0.0
 11
47.759275182931475
 21
-121.7290480744619
 31
0.0
  0
LINE
  8
default
 10
8.3994653574580127
 20
-87.858224911349609
 30
0.0
 11
13.961802306843062
 21
-108.61714901527226
 31
0.0
  0
LINE
  8
default
 10
13.961802306843062
 20
-108.61714901527226
 30
0.0
 11
19.503778462480639
 21
-129.30008560244693
 31
0.0
  0
LINE
  8
default
 10
71.738913246755445
 20
-44.193625065783195
 30
0.0
 11
73.153126809128537
 21
-45.60783862815628
 31
0.0
  0
LINE
  8
default
 10
44.193625065783117
 20
-71.738913246755487
 30
0.0
 11
45.607838628156216
 21
-73.15312680912858
 31
0.0
  0
LINE
  8
default
 10
73.153126809128537
 20
-45.60783862815628
 30
0.0
 11
71.887722025906555
 21
-51.203262833440803
 31
0.0
  0
LINE
  8
default
 10
45.607838628156216
 20
-73.15312680912858
 30
0.0
 11
51.203262833440746
 21
-71.887722025906598
 31
0.0
  0
LINE
  8
default
 10
71.887722025906555
 20
-51.203262833440803
 30
0.0
 11
87.084309180444151
 21
-66.399849987978428
 31
0.0
  0
LINE
  8
default
 10
87.084309180444151
 20
-66.399849987978428
 30
0.0
 11
102.22526961198125
 21
-81.540810419515537
 31
0.0
  0
LINE
  8
default
 10
51.203262833440746
 20
-71.887722025906598
 30
0.0
 11
66.399849987978342
 21
-87.084309180444222
 31
0.0
  0
LINE
  8
default
 10
66.399849987978342
 20
-87.084309180444222
 30
0.0
 11
81.540810419515424
 21
-102.22526961198132
 31
0.0
  0
LINE
  8
layer10
 10
54.649329055627327
 20
54.649329055627319
 30
0.0
 11
57.167580570165335
 21
57.167580570165327
 31
0.0
  0
LINE
  8
layer10
 10
54.649329055627327
 20
-54.649329055627319
 30
0.0
 11
57.167580570165335
 21
-57.167580570165327
 31
0.0
  0
LINE
  8
layer10
 10
-54.649329055627319
 20
54.649329055627327
 30
0.0
 11
-57.167580570165327
 21
57.167580570165335
 31
0.0
  0
LINE
  8
layer10
 10
-54.649329055627334
 20
-54.649329055627312
 30
0.0
 11
-57.167580570165342
 21
-57.16758057016532
 31
0.0
  0
ARC
  8
default
 10
-1.4210854715202004e-014
 20
2.8421709430404007e-014
 30
0
 40
84.258816572988508
 50
345
 51
358.36550961997108
  0
ARC
  8
default
 10
-2.8421709430404007e-014
 20
-7.1054273576010019e-015
 30
0
 40
84.258816572988522
 50
331.63449038002892
 51
345
  0
ARC
  8
default
 10
1.7599361502301178
 20
-0.13198886446516056
 30
0
 40
129.00293002301765
 50
351.36348230652447
 51
0.058621972343205021
  0
ARC
  8
default
 10
1.5901438473705269
 20
-0.7656623654715986
 30
0
 40
129.00293002301757
 50
329.94137802765681
 51
338.63651769347553
  0
ARC
  8
default
 10
17.240672819748269
 20
-1.1035305573298402
 30
0
 40
92.276733548037384
 50
351.99007261096591
 51
0.68521227678463803
  0
ARC
  8
default
 10
15.482625918902855
 20
-7.6646509133740324
 30
0
 40
92.276733548037384
 50
329.31478772321532
 51
338.00992738903403
  0
ARC
  8
default
 10
-1.4210854715202004e-014
 20
-6.0396132539608516e-014
 30
0
 40
84.258816572988536
 50
15.00000000000003
 51
28.365509619971114
  0
ARC
  8
default
 10
1.4210854715202004e-014
 20
-3.5527136788005009e-014
 30
0
 40
84.258816572988508
 50
1.6344903800289379
 51
15.000000000000018
  0
ARC
  8
default
 10
1.5901438473704275
 20
0.76566236547149202
 30
0
 40
129.00293002301771
 50
21.363482306524503
 51
30.058621972343236
  0
ARC
  8
default
 10
1.7599361502301747
 20
0.13198886446515701
 30
0
 40
129.0029300230176
 50
359.94137802765681
 51
8.6365176934755237
  0
ARC
  8
default
 10
15.482625918902812
 20
7.6646509133741247
 30
0
 40
92.276733548037384
 50
21.990072610965889
 51
30.685212276784615
  0
ARC
  8
default
 10
17.240672819748269
 20
1.1035305573300276
 30
0
 40
92.276733548037384
 50
359.31478772321526
 51
8.0099273890339706
  0
ARC
  8
default
 10
-2.1316282072803006e-014
 20
-7.1054273576010019e-015
 30
0
 40
84.258816572988522
 50
44.999999999999993
 51
58.365509619971071
  0
ARC
  8
default
 10
0
 20
0
 30
0
 40
84.258816572988508
 50
31.634490380028918
 51
45
  0
ARC
  8
default
 10
0.99427378475867556
 20
1.458154982905171
 30
0
 40
129.00293002301765
 50
51.363482306524553
 51
60.058621972343289
  0
ARC
  8
default
 10
1.4581549829052705
 20
0.99427378475874661
 30
0
 40
129.00293002301751
 50
29.941378027656715
 51
38.63651769347544
  0
ARC
  8
default
 10
9.5760219063742227
 20
14.37909536157288
 30
0
 40
92.276733548037456
 50
51.99007261096596
 51
60.685212276784682
  0
ARC
  8
default
 10
14.379095361572936
 20
9.5760219063741872
 30
0
 40
92.276733548037413
 50
29.314787723215336
 51
38.009927389034061
  0
ARC
  8
default
 10
-2.4868995751603507e-014
 20
-1.4210854715202004e-014
 30
0
 40
84.258816572988508
 50
74.999999999999986
 51
88.365509619971064
  0
ARC
  8
default
 10
7.1054273576010019e-015
 20
0
 30
0
 40
84.258816572988508
 50
61.634490380028922
 51
75.000000000000014
  0
ARC
  8
default
 10
0.13198886446516767
 20
1.7599361502301178
 30
0
 40
129.00293002301765
 50
81.363482306524489
 51
90.058621972343218
  0
ARC
  8
default
 10
0.76566236547148492
 20
1.5901438473705127
 30
0
 40
129.0029300230176
 50
59.941378027656746
 51
68.636517693475469
  0
ARC
  8
default
 10
1.1035305573298473
 20
17.240672819748269
 30
0
 40
92.276733548037384
 50
81.990072610965925
 51
90.685212276784625
  0
ARC
  8
default
 10
7.6646509133741318
 20
15.482625918902741
 30
0
 40
92.276733548037413
 50
59.314787723215396
 51
68.009927389034118
  0
ARC
  8
default
 10
1.0658141036401503e-014
 20
2.8421709430404007e-014
 30
0
 40
84.258816572988493
 50
105
 51
118.36550961997109
  0
ARC
  8
default
 10
-1.4210854715202004e-014
 20
-2.8421709430404007e-014
 30
0
 40
84.258816572988536
 50
91.634490380028907
 51
104.99999999999999
  0
ARC
  8
default
 10
-0.7656623654714636
 20
1.5901438473705127
 30
0
 40
129.0029300230176
 50
111.36348230652453
 51
120.05862197234326
  0
ARC
  8
default
 10
-0.13198886446514635
 20
1.7599361502302315
 30
0
 40
129.00293002301754
 50
89.941378027656796
 51
98.636517693475511
  0
ARC
  8
default
 10
-7.6646509133741105
 20
15.482625918902812
 30
0
 40
92.276733548037384
 50
111.9900726109659
 51
120.68521227678461
  0
ARC
  8
default
 10
-1.1035305573299237
 20
17.240672819748312
 30
0
 40
92.276733548037342
 50
89.314787723215318
 51
98.009927389034047
  0
ARC
  8
default
 10
-7.1054273576010019e-015
 20
-2.8421709430404007e-014
 30
0
 40
84.258816572988522
 50
135
 51
148.36550961997108
  0
ARC
  8
default
 10
2.1316282072803006e-014
 20
-1.4210854715202004e-014
 30
0
 40
84.258816572988522
 50
121.63449038002895
 51
135.00000000000003
  0
ARC
  8
default
 10
-1.4581549829053841
 20
0.99427378475856187
 30
0
 40
129.00293002301757
 50
141.36348230652447
 51
150.05862197234319
  0
ARC
  8
default
 10
-0.99427378475856187
 20
1.458154982904901
 30
0
 40
129.00293002301797
 50
119.94137802765671
 51
128.63651769347544
  0
ARC
  8
default
 10
-14.379095361572922
 20
9.5760219063742866
 30
0
 40
92.27673354803737
 50
141.990072610966
 51
150.68521227678474
  0
ARC
  8
default
 10
-9.5760219063740237
 20
14.379095361572652
 30
0
 40
92.276733548037754
 50
119.31478772321535
 51
128.00992738903406
  0
ARC
  8
default
 10
1.4210854715202004e-014
 20
-1.7763568394002505e-014
 30
0
 40
84.258816572988508
 50
164.99999999999997
 51
178.36550961997108
  0
ARC
  8
default
 10
2.8421709430404007e-014
 20
1.4210854715202004e-014
 30
0
 40
84.258816572988536
 50
151.63449038002892
 51
165.00000000000003
  0
ARC
  8
default
 10
-1.7599361502301178
 20
0.13198886446517832
 30
0
 40
129.00293002301765
 50
171.36348230652447
 51
180.05862197234319
  0
ARC
  8
default
 10
-1.5901438473706264
 20
0.76566236547169808
 30
0
 40
129.00293002301743
 50
149.94137802765681
 51
158.63651769347555
  0
ARC
  8
default
 10
-17.240672819748283
 20
1.1035305573298526
 30
0
 40
92.276733548037384
 50
171.99007261096591
 51
180.68521227678463
  0
ARC
  8
default
 10
-15.482625918902954
 20
7.6646509133741318
 30
0
 40
92.276733548037257
 50
149.31478772321535
 51
158.00992738903409
  0
ARC
  8
default
 10
4.2632564145606011e-014
 20
-1.7763568394002505e-014
 30
0
 40
84.258816572988536
 50
194.99999999999997
 51
208.36550961997108
  0
ARC
  8
default
 10
0
 20
1.7763568394002505e-014
 30
0
 40
84.258816572988508
 50
181.63449038002892
 51
195.00000000000003
  0
ARC
  8
default
 10
-1.5901438473704275
 20
-0.76566236547152045
 30
0
 40
129.00293002301771
 50
201.3634823065245
 51
210.05862197234322
  0
ARC
  8
default
 10
-1.7599361502298621
 20
-0.13198886446516589
 30
0
 40
129.00293002301791
 50
179.94137802765678
 51
188.63651769347553
  0
ARC
  8
default
 10
-15.482625918902954
 20
-7.6646509133739613
 30
0
 40
92.276733548037328
 50
201.99007261096602
 51
210.68521227678477
  0
ARC
  8
default
 10
-17.240672819747999
 20
-1.1035305573299388
 30
0
 40
92.276733548037654
 50
179.31478772321532
 51
188.00992738903398
  0
ARC
  8
default
 10
1.4210854715202004e-014
 20
-7.815970093361102e-014
 30
0
 40
84.258816572988465
 50
224.99999999999991
 51
238.36550961997102
  0
ARC
  8
default
 10
1.4210854715202004e-014
 20
5.6843418860808015e-014
 30
0
 40
84.25881657298855
 50
211.63449038002892
 51
225
  0
ARC
  8
default
 10
-0.99427378475870398
 20
-1.4581549829052136
 30
0
 40
129.0029300230176
 50
231.36348230652453
 51
240.05862197234325
  0
ARC
  8
default
 10
-1.4581549829058247
 20
-0.99427378475881767
 30
0
 40
129.002930023017
 50
209.94137802765681
 51
218.63651769347553
  0
ARC
  8
default
 10
-9.5760219063743506
 20
-14.379095361572851
 30
0
 40
92.276733548037399
 50
231.990072610966
 51
240.68521227678474
  0
ARC
  8
default
 10
-14.379095361573221
 20
-9.5760219063745566
 30
0
 40
92.276733548036987
 50
209.31478772321526
 51
218.00992738903398
  0
ARC
  8
default
 10
1.4210854715202004e-014
 20
1.4210854715202004e-014
 30
0
 40
84.258816572988508
 50
254.99999999999997
 51
268.36550961997108
  0
ARC
  8
default
 10
-2.1316282072803006e-014
 20
2.8421709430404007e-014
 30
0
 40
84.258816572988522
 50
241.63449038002892
 51
255
  0
ARC
  8
default
 10
-0.13198886446518543
 20
-1.7599361502301178
 30
0
 40
129.00293002301765
 50
261.36348230652447
 51
270.05862197234319
  0
ARC
  8
default
 10
-0.76566236547135702
 20
-1.5901438473702285
 30
0
 40
129.00293002301794
 50
239.94137802765673
 51
248.63651769347547
  0
ARC
  8
default
 10
-1.1035305573298562
 20
-17.240672819748255
 30
0
 40
92.276733548037399
 50
261.99007261096591
 51
270.68521227678463
  0
ARC
  8
default
 10
-7.6646509133738689
 20
-15.482625918902613
 30
0
 40
92.276733548037669
 50
239.31478772321526
 51
248.009927389034
  0
ARC
  8
default
 10
1.7763568394002505e-014
 20
4.2632564145606011e-014
 30
0
 40
84.258816572988536
 50
285
 51
298.36550961997108
  0
ARC
  8
default
 10
-1.7763568394002505e-014
 20
0
 30
0
 40
84.258816572988508
 50
271.63449038002892
 51
285
  0
ARC
  8
default
 10
0.76566236547152045
 20
-1.5901438473704275
 30
0
 40
129.00293002301771
 50
291.36348230652447
 51
300.05862197234325
  0
ARC
  8
default
 10
0.13198886446516411
 20
-1.7599361502298336
 30
0
 40
129.00293002301794
 50
269.94137802765675
 51
278.63651769347553
  0
ARC
  8
default
 10
7.6646509133739613
 20
-15.482625918902954
 30
0
 40
92.276733548037328
 50
291.99007261096602
 51
300.68521227678474
  0
ARC
  8
default
 10
1.1035305573299379
 20
-17.240672819747985
 30
0
 40
92.276733548037669
 50
269.31478772321526
 51
278.00992738903403
  0
ARC
  8
default
 10
7.815970093361102e-014
 20
1.4210854715202004e-014
 30
0
 40
84.258816572988465
 50
314.99999999999994
 51
328.36550961997102
  0
ARC
  8
default
 10
-5.6843418860808015e-014
 20
1.4210854715202004e-014
 30
0
 40
84.25881657298855
 50
301.63449038002892
 51
315
  0
ARC
  8
default
 10
1.4581549829048726
 20
-0.99427378475830608
 30
0
 40
129.00293002301811
 50
321.36348230652447
 51
330.05862197234319
  0
ARC
  8
default
 10
0.99427378475881767
 20
-1.4581549829058247
 30
0
 40
129.002930023017
 50
299.94137802765681
 51
308.63651769347553
  0
ARC
  8
default
 10
14.379095361572524
 20
-9.5760219063740379
 30
0
 40
92.276733548037839
 50
321.99007261096597
 51
330.68521227678468
  0
ARC
  8
default
 10
9.5760219063745566
 20
-14.379095361573221
 30
0
 40
92.276733548036987
 50
299.31478772321526
 51
308.00992738903398
  0
ARC
  8
default
 10
0
 20
1.4210854715202004e-014
 30
0
 40
180
 50
345
 51
165.00000000000003
  0
ARC
  8
default
 10
0
 20
7.1054273576010019e-015
 30
0
 40
180
 50
165.00000000000003
 51
345
  0
ARC
  8
default
 10
-4.2632564145606011e-014
 20
2.4558133304708463e-013
 30
0
 40
84.25881657298855
 50
358.36550961997091
 51
1.6344903800287456
  0
ARC
  8
default
 10
-1.1368683772161603e-013
 20
-4.2632564145606011e-014
 30
0
 40
84.258816572988621
 50
28.365509619971068
 51
31.634490380028904
  0
ARC
  8
default
 10
4.9737991503207013e-014
 20
4.2632564145606011e-014
 30
0
 40
84.258816572988451
 50
58.3655096199711
 51
61.634490380028929
  0
ARC
  8
default
 10
1.2434497875801753e-014
 20
4.2632564145606011e-014
 30
0
 40
84.258816572988465
 50
88.365509619971093
 51
91.634490380028922
  0
ARC
  8
default
 10
-3.5527136788005009e-014
 20
-4.2632564145606011e-014
 30
0
 40
84.258816572988522
 50
118.36550961997104
 51
121.63449038002889
  0
ARC
  8
default
 10
-4.2632564145606011e-014
 20
7.815970093361102e-014
 30
0
 40
84.258816572988422
 50
148.36550961997114
 51
151.63449038002898
  0
ARC
  8
default
 10
5.6843418860808015e-014
 20
0
 30
0
 40
84.258816572988565
 50
178.36550961997108
 51
181.63449038002892
  0
ARC
  8
default
 10
1.4210854715202004e-014
 20
1.4210854715202004e-014
 30
0
 40
84.258816572988536
 50
208.36550961997108
 51
211.63449038002889
  0
ARC
  8
default
 10
0
 20
1.5631940186722204e-013
 30
0
 40
84.258816572988664
 50
238.36550961997111
 51
241.63449038002898
  0
ARC
  8
default
 10
-1.7763568394002505e-015
 20
7.1054273576010019e-014
 30
0
 40
84.258816572988579
 50
268.36550961997108
 51
271.63449038002892
  0
ARC
  8
default
 10
-1.4210854715202004e-014
 20
1.4210854715202004e-014
 30
0
 40
84.258816572988536
 50
298.36550961997108
 51
301.63449038002886
  0
ARC
  8
default
 10
-1.5631940186722204e-013
 20
-1.4921397450962104e-013
 30
0
 40
84.258816572988565
 50
328.36550961997119
 51
331.63449038002904
  0
ARC
  8
layer10
 10
0
 20
0
 30
0
 40
77.285822325058206
 50
0
 51
45
  0
ARC
  8
layer10
 10
-7.1054273576010019e-015
 20
0
 30
0
 40
77.285822325058206
 50
315
 51
0
  0
ARC
  8
layer10
 10
0
 20
3.5527136788005009e-015
 30
0
 40
80.847167770384445
 50
360
 51
45
  0
ARC
  8
layer10
 10
7.1054273576010019e-015
 20
0
 30
0
 40
80.847167770384445
 50
315
 51
0
  0
ARC
  8
layer10
 10
-5.9257492899088233e-015
 20
0
 30
0
 40
77.285822325058191
 50
90
 51
135
  0
ARC
  8
layer10
 10
0
 20
-7.1054273576010019e-015
 30
0
 40
77.285822325058206
 50
45
 51
90
  0
ARC
  8
layer10
 10
-5.7076797748949842e-015
 20
0
 30
0
 40
80.847167770384445
 50
90
 51
135
  0
ARC
  8
layer10
 10
0
 20
0
 30
0
 40
80.847167770384445
 50
45
 51
90
  0
ARC
  8
layer10
 10
0
 20
-1.1933575434161438e-015
 30
0
 40
77.285822325058191
 50
180
 51
224.99999999999997
  0
ARC
  8
layer10
 10
7.1054273576010019e-015
 20
0
 30
0
 40
77.285822325058206
 50
135
 51
180
  0
ARC
  8
layer10
 10
-1.4210854715202004e-014
 20
-7.5721851338846562e-016
 30
0
 40
80.847167770384431
 50
180
 51
225
  0
ARC
  8
layer10
 10
0
 20
0
 30
0
 40
80.847167770384445
 50
135
 51
180
  0
ARC
  8
layer10
 10
-1.0644461560677536e-014
 20
2.8421709430404007e-014
 30
0
 40
77.285822325058234
 50
270
 51
315
  0
ARC
  8
layer10
 10
0
 20
7.1054273576010019e-015
 30
0
 40
77.285822325058206
 50
225
 51
270
  0
ARC
  8
layer10
 10
-7.7459564269185507e-015
 20
2.8421709430404007e-014
 30
0
 40
80.847167770384473
 50
270
 51
315
  0
ARC
  8
layer10
 10
0
 20
7.1054273576010019e-015
 30
0
 40
80.847167770384445
 50
225
 51
270
  0
ARC
  8
default
 10
0
 20
0
 30
0
 40
270
 50
90
 51
270
  0
ARC
  8
default
 10
0
 20
0
 30
0
 40
270
 50
270
 51
90
  0
ARC
  8
default
 10
0
 20
0
 30
0
 40
273.85714285714289
 50
270
 51
90
  0
ARC
  8
default
 10
0
 20
0
 30
0
 40
273.85714285714289
 50
90
 51
270
  0
ARC
  8
default
 10
0
 20
0
 30
0
 40
277.71428571428572
 50
270
 51
90
  0
ARC
  8
default
 10
0
 20
0
 30
0
 40
277.71428571428572
 50
90
 51
270
  0
ARC
  8
default
 10
0
 20
0
 30
0
 40
281.57142857142861
 50
270
 51
90
  0
ARC
  8
default
 10
0
 20
0
 30
0
 40
281.57142857142861
 50
90
 51
270
  0
ARC
  8
default
 10
0
 20
0
 30
0
 40
285.42857142857144
 50
270
 51
90
  0
ARC
  8
default
 10
0
 20
0
 30
0
 40
285.42857142857144
 50
90
 51
270
  0
ARC
  8
default
 10
0
 20
0
 30
0
 40
289.28571428571428
 50
270
 51
90
  0
ARC
  8
default
 10
0
 20
0
 30
0
 40
289.28571428571428
 50
90
 51
270
  0
ARC
  8
default
 10
0
 20
0
 30
0
 40
293.14285714285717
 50
270
 51
90
  0
ARC
  8
default
 10
0
 20
0
 30
0
 40
293.14285714285717
 50
90
 51
270
  0
ARC
  8
default
 10
0
 20
0
 30
0
 40
297.00000000000006
 50
270
 51
90
  0
ARC
  8
default
 10
0
 20
0
 30
0
 40
297.00000000000006
 50
90
 51
270
  0
ENDSEC
  0
EOF
